<svg xmlns="http://www.w3.org/2000/svg" viewBox="0 0 20 24"><g fill="none" class="nc-icon-wrapper"><path fill-rule="evenodd" clip-rule="evenodd" d="M.048 10.62A2.21 2.21 0 0 1 2.67 8.903c1.875.399 3.394 1.302 4.443 2.1A27.752 27.752 0 0 1 5.622 8.06c-.876-.528-3.193-2.12-4.498-4.876A2.234 2.234 0 0 1 2.174.216 2.21 2.21 0 0 1 5.125 1.27c1.232 2.61 1.086 5.27.944 6.408.511.99 1.136 2.069 1.884 3.206-.602-1.21-1.309-3.11-1.268-5.316A2.218 2.218 0 0 1 8.94 3.386 2.219 2.219 0 0 1 11.11 5.65c-.06 3.413-1.875 6.023-2.258 6.537a37.777 37.777 0 0 0 2.86 3.472c-.465-1.266-.999-3.334-.666-5.642a2.215 2.215 0 0 1 2.51-1.88 2.223 2.223 0 0 1 1.87 2.523c-.43 2.949-2.104 5.119-2.82 5.93a39.298 39.298 0 0 0 4.17 3.629c-.557-1.152-1.419-3.413-1.195-6.032a2.218 2.218 0 0 1 2.394-2.028 2.223 2.223 0 0 1 2.017 2.409c-.26 3.05-1.889 5.366-2.523 6.16.616.445 1.255.885 1.925 1.312l-.155 1.436s-1.04-.634-2.587-1.83c-.885.669-3.147 2.146-6.062 2.348a2.22 2.22 0 0 1-2.358-2.069 2.223 2.223 0 0 1 2.057-2.371c1.857-.129 3.517.293 4.73.756a40.742 40.742 0 0 1-3.097-2.958c-.944.495-3.458 1.624-6.423 1.326a2.225 2.225 0 0 1-1.984-2.436 2.219 2.219 0 0 1 2.422-1.995c1.898.188 3.499.917 4.626 1.591a35.484 35.484 0 0 1-2.39-3.151c-1.073.408-3.61 1.165-6.415.569a2.225 2.225 0 0 1-1.71-2.638z" fill="currentColor"></path></g></svg>